<?xml version="1.0" encoding="UTF-8" standalone="no"?>
<!DOCTYPE svg PUBLIC "-//W3C//DTD SVG 1.1//EN" "http://www.w3.org/Graphics/SVG/1.1/DTD/svg11.dtd">
<svg width="505.03" height="484.46" viewBox="0.00 0.00 2455.00 2355.00" xmlns="http://www.w3.org/2000/svg" xmlns:xlink="http://www.w3.org/1999/xlink">
<g stroke-linecap="round" transform="translate(-543.00, -793.00)" id="레이어_4">
<path d="M2276.26,2420.35 C2273.84,2422.27 2270.18,2422.87 2266.06,2422.53 C2264.23,2422.36 2255.85,2421.26 2251.99,2421.34 C2245.94,2421.50 2231.99,2424.14 2226.04,2425.45 C2207.24,2430.05 2128.12,2452.72 2095.12,2462.42 C2077.15,2467.75 2043.99,2476.63 2034.67,2478.64 C2025.59,2480.46 2014.14,2480.30 2010.94,2479.42 C2009.80,2479.10 2002.39,2476.23 1999.01,2475.90 C1995.94,2475.62 1989.39,2476.29 1986.18,2477.15 C1982.86,2478.06 1973.23,2482.35 1971.95,2482.91 C1968.22,2484.53 1960.46,2485.90 1956.57,2485.63 C1952.72,2485.31 1945.01,2482.73 1941.11,2480.54 C1934.99,2477.05 1917.67,2461.76 1917.48,2460.62 C1917.40,2459.70 1920.17,2459.57 1922.67,2460.51 C1924.54,2461.24 1925.80,2462.01 1926.44,2462.81 C1927.44,2464.11 1926.95,2466.58 1925.82,2467.99 C1918.34,2477.22 1897.49,2491.83 1894.73,2493.66 C1892.98,2494.82 1890.74,2495.22 1889.77,2494.24 C1889.65,2494.12 1886.08,2482.24 1885.75,2480.42 C1885.19,2477.08 1885.97,2472.49 1888.23,2469.32 C1890.29,2466.42 1890.73,2464.99 1889.88,2463.64 C1888.37,2461.45 1851.15,2442.89 1835.38,2432.06 C1828.75,2427.38 1814.52,2416.81 1807.19,2411.26 C1801.86,2407.13 1796.65,2402.28 1794.59,2399.19 C1792.64,2396.17 1791.22,2390.17 1791.74,2387.18 C1792.33,2384.19 1796.23,2377.79 1799.00,2375.28 C1801.63,2372.96 1827.32,2359.19 1840.21,2353.32 C1854.21,2347.27 1886.65,2334.53 1905.09,2327.83 C1925.23,2320.89 1963.97,2307.40 1982.57,2300.85 C1998.76,2294.85 2028.76,2283.38 2042.55,2277.92 C2054.55,2272.87 2074.50,2264.02 2082.41,2258.40 C2086.42,2255.52 2092.33,2249.63 2094.20,2246.66 C2095.63,2244.34 2100.98,2228.85 2102.98,2223.03 C2104.95,2217.26 2112.24,2192.62 2112.50,2191.91 C2113.19,2190.05 2114.94,2187.05 2115.98,2185.96 C2117.03,2184.92 2119.46,2183.65 2120.81,2183.43 C2122.26,2183.24 2124.91,2183.64 2126.47,2184.27 C2129.51,2185.57 2136.67,2190.77 2140.65,2194.56 C2144.91,2198.79 2152.85,2206.47 2155.48,2208.01 C2156.70,2208.69 2158.55,2209.05 2159.08,2208.68 C2160.01,2207.93 2159.84,2204.22 2159.35,2202.08 C2157.48,2194.27 2139.33,2152.17 2134.15,2139.39 C2132.41,2134.99 2131.59,2132.30 2131.49,2130.41 C2131.29,2126.76 2129.80,2122.99 2127.36,2119.72 C2124.90,2116.50 2120.05,2112.29 2116.27,2110.05 C2112.51,2107.87 2106.64,2105.56 2102.63,2104.58 C2090.02,2101.70 2078.01,2099.53 2074.73,2099.77 C2071.71,2100.04 2066.50,2102.90 2064.39,2105.28 C2061.48,2108.67 2051.80,2126.22 2048.57,2132.22 C2044.61,2139.78 2036.29,2155.69 2031.96,2163.52 C2026.32,2173.12 2018.11,2185.57 2013.55,2191.05 C2007.76,2197.97 1996.81,2207.20 1990.60,2210.81 C1987.71,2212.46 1981.37,2215.39 1978.99,2216.16 C1972.82,2218.14 1963.63,2218.82 1951.05,2218.45 C1943.09,2218.23 1927.15,2219.05 1920.29,2219.43 C1913.93,2219.93 1900.17,2221.41 1893.06,2222.25 C1885.26,2223.22 1868.97,2223.37 1859.74,2222.57 C1850.36,2221.73 1834.47,2218.92 1826.91,2217.35 C1807.02,2212.81 1745.68,2194.31 1732.92,2190.96 C1721.07,2188.13 1704.82,2185.35 1698.89,2185.98 C1692.78,2186.66 1680.44,2185.44 1672.72,2183.48 C1665.26,2181.56 1648.70,2175.65 1640.91,2172.84 C1638.21,2171.86 1634.45,2170.50 1633.40,2170.12" fill="none" stroke="rgb(164, 236, 240)" stroke-width="300.00" stroke-opacity="1.00" stroke-linejoin="round"/>
</g>
<g stroke-linecap="round" transform="translate(-543.00, -793.00)" id="레이어_3">
<path d="M1542.11,1581.29 C1543.67,1582.07 1545.93,1583.30 1546.78,1583.93 C1548.52,1585.25 1552.10,1590.81 1553.70,1594.25 C1556.14,1599.56 1558.63,1611.80 1558.80,1618.60 C1558.86,1625.86 1559.04,1640.63 1559.30,1647.99 C1559.94,1660.51 1560.23,1663.81 1562.53,1675.92 C1563.31,1679.88 1570.35,1697.54 1573.05,1703.01 C1574.64,1706.19 1581.97,1719.87 1585.94,1725.49 C1594.66,1737.67 1598.78,1743.72 1604.71,1750.18 C1609.15,1755.02 1612.86,1759.37 1614.39,1760.81 C1615.26,1761.61 1625.94,1770.66 1626.52,1771.17 C1630.70,1774.82 1660.68,1795.04 1674.97,1803.23 C1680.09,1806.09 1690.41,1810.67 1696.33,1812.52" fill="none" stroke="rgb(48, 48, 48)" stroke-width="7.00" stroke-opacity="1.00" stroke-linejoin="round"/>
<path d="M1705.37,1813.90 C1710.63,1814.87 1721.72,1817.65 1729.30,1818.30 C1732.73,1818.57 1742.09,1819.29 1743.38,1819.27 C1749.47,1819.15 1758.21,1816.16 1771.27,1810.79 C1780.32,1807.21 1791.93,1801.59 1797.70,1798.36 C1809.36,1791.30 1833.56,1776.89 1845.79,1769.42 C1867.35,1755.95 1877.02,1750.51 1891.80,1738.43 C1895.11,1735.71 1906.73,1724.61 1908.07,1723.32 C1911.86,1719.62 1921.76,1708.20 1925.29,1702.98 C1927.41,1699.82 1932.67,1691.03 1937.32,1681.23 C1938.53,1678.69 1946.94,1662.10 1948.64,1657.06 C1950.12,1653.11 1950.67,1642.69 1951.43,1638.50" fill="none" stroke="rgb(48, 48, 48)" stroke-width="7.00" stroke-opacity="1.00" stroke-linejoin="round"/>
<path d="M1952.97,1547.88 C1952.97,1547.88 1952.10,1547.83 1952.10,1547.83 C1951.75,1543.70 1954.42,1529.20 1955.96,1526.02 C1956.95,1524.02 1962.14,1515.69 1962.69,1514.90 C1963.62,1513.61 1974.27,1504.41 1979.57,1500.77 C1984.47,1497.40 1990.04,1493.87 1993.61,1492.06 C1995.79,1490.97 2003.12,1487.72 2006.23,1487.43 C2006.34,1487.42 2012.06,1487.27 2012.31,1487.34 C2012.49,1487.38 2012.65,1487.55 2012.78,1487.83" fill="none" stroke="rgb(48, 48, 48)" stroke-width="7.00" stroke-opacity="1.00" stroke-linejoin="round"/>
<path d="M1970.00,1656.25 C1971.47,1657.14 1977.85,1658.87 1981.93,1659.15 C1985.28,1659.34 1990.35,1658.05 1994.75,1656.30 C1997.92,1655.02 2004.48,1652.34 2007.51,1650.55 C2014.65,1646.31 2024.19,1639.39 2029.71,1633.52 C2037.04,1625.66 2043.33,1611.91 2044.85,1609.29" fill="none" stroke="rgb(48, 48, 48)" stroke-width="7.00" stroke-opacity="1.00" stroke-linejoin="round"/>
<path d="M2008.35,1522.64 C2008.39,1522.73 2006.43,1521.90 2005.60,1521.60 C2003.57,1520.89 1997.94,1521.45 1994.95,1522.49 C1991.95,1523.57 1986.21,1527.00 1983.82,1529.19 C1979.37,1533.34 1974.29,1541.86 1968.09,1553.16 C1965.21,1558.54 1960.31,1569.74 1958.76,1575.37 C1957.19,1581.14 1955.94,1594.26 1956.35,1600.74 C1956.82,1607.82 1959.41,1618.24 1961.46,1622.21 C1962.77,1624.66 1967.12,1629.72 1969.36,1630.50 C1971.73,1631.23 1976.79,1628.72 1978.90,1626.60 C1980.87,1624.56 1984.03,1619.57 1985.62,1616.17 C1987.24,1612.62 1991.37,1593.83 1991.10,1591.56 C1991.07,1591.36 1990.97,1591.06 1990.79,1590.68 C1988.77,1590.01 1983.59,1590.79 1979.95,1592.19 C1978.72,1592.67 1974.70,1594.45 1972.97,1595.23 C1970.25,1596.44 1967.84,1597.42 1967.40,1597.58" fill="none" stroke="rgb(48, 48, 48)" stroke-width="7.00" stroke-opacity="1.00" stroke-linejoin="round"/>
<path d="M2014.44,1527.77 C2014.82,1527.84 2015.27,1528.31 2016.16,1529.67 C2017.66,1531.98 2019.67,1535.72 2020.76,1538.24 C2022.06,1541.29 2023.78,1548.08 2024.10,1551.72 C2024.60,1557.61 2022.77,1571.35 2020.36,1577.59 C2019.24,1580.45 2016.81,1584.84 2015.77,1586.13 C2013.74,1588.58 2009.51,1591.55 2008.75,1592.03 C2008.19,1592.38 2007.35,1592.79 2007.12,1592.88" fill="none" stroke="rgb(48, 48, 48)" stroke-width="7.00" stroke-opacity="1.00" stroke-linejoin="round"/>
<path d="M1911.00,1447.18 C1911.70,1447.34 1915.03,1450.29 1917.47,1452.83 C1922.31,1457.95 1930.34,1466.81 1934.97,1472.82 C1939.18,1478.39 1943.43,1486.31 1948.17,1496.51 C1952.94,1507.33 1956.51,1516.61 1956.52,1516.93" fill="none" stroke="rgb(48, 48, 48)" stroke-width="7.00" stroke-opacity="1.00" stroke-linejoin="round"/>
<path d="M1924.89,1479.50 C1925.94,1480.74 1926.65,1481.63 1927.90,1483.30 C1933.29,1490.50 1938.19,1497.73 1941.14,1503.11 C1944.11,1508.56 1950.89,1529.83 1951.93,1532.32" fill="none" stroke="rgb(48, 48, 48)" stroke-width="7.00" stroke-opacity="1.00" stroke-linejoin="round"/>
<path d="M1925.11,1435.11 C1925.70,1435.69 1927.02,1436.85 1928.34,1437.92 C1933.10,1441.63 1942.22,1448.87 1946.13,1453.12 C1951.10,1458.57 1955.92,1465.57 1961.57,1474.87 C1967.46,1484.75 1970.67,1490.79 1973.94,1499.01 C1973.94,1499.01 1974.15,1499.75 1974.15,1499.75" fill="none" stroke="rgb(48, 48, 48)" stroke-width="7.00" stroke-opacity="1.00" stroke-linejoin="round"/>
<path d="M1957.16,1444.37 C1958.42,1446.17 1961.47,1449.98 1965.50,1454.73 C1970.61,1460.72 1977.74,1471.94 1980.22,1478.04 C1983.13,1485.30 1985.85,1494.61 1986.34,1498.45 C1986.34,1498.45 1985.71,1497.45 1985.71,1497.45" fill="none" stroke="rgb(48, 48, 48)" stroke-width="7.00" stroke-opacity="1.00" stroke-linejoin="round"/>
<path d="M1678.07,1330.10 C1678.48,1328.51 1678.73,1327.49 1678.82,1327.04 C1679.40,1324.06 1678.00,1318.74 1676.10,1315.84 C1673.36,1311.80 1661.27,1300.28 1656.82,1297.26 C1654.46,1295.67 1647.80,1292.71 1643.99,1291.79 C1641.26,1291.16 1632.25,1289.94 1628.72,1289.49 C1626.86,1289.32 1624.67,1289.93 1622.50,1291.25 C1619.12,1293.39 1615.66,1298.70 1614.82,1301.60 C1613.75,1305.52 1612.74,1326.93 1612.88,1329.33 C1613.10,1333.16 1615.73,1353.15 1616.16,1357.73 C1617.33,1370.36 1616.89,1413.45 1616.28,1419.73 C1615.76,1424.73 1613.51,1442.94 1612.48,1451.04 C1611.14,1461.25 1608.50,1470.80 1605.10,1479.24 C1602.37,1486.01 1597.87,1497.25 1593.25,1505.02 C1578.86,1528.95 1568.71,1542.81 1561.35,1552.99 C1560.08,1554.60 1544.94,1571.92 1543.94,1572.98 C1541.82,1575.22 1528.34,1585.99 1524.43,1588.90 C1513.88,1596.72 1506.34,1602.03 1498.87,1605.78 C1496.01,1607.20 1480.05,1614.38 1473.79,1616.60 C1468.95,1618.27 1454.26,1621.18 1450.79,1621.29 C1448.77,1621.34 1439.64,1620.93 1436.19,1620.25 C1431.41,1619.30 1418.01,1613.90 1412.34,1610.43 C1410.04,1609.00 1407.69,1606.65 1403.05,1602.25" fill="none" stroke="rgb(48, 48, 48)" stroke-width="7.00" stroke-opacity="1.00" stroke-linejoin="round"/>
<path d="M1506.81,1552.84 C1506.93,1554.19 1506.86,1556.48 1506.57,1557.85 C1505.67,1561.85 1498.80,1570.25 1492.97,1576.30 C1490.93,1578.41 1486.12,1582.90 1485.01,1583.81 C1481.87,1586.38 1462.87,1596.24 1459.00,1597.39 C1453.57,1598.89 1447.96,1600.78 1444.36,1602.05 C1439.32,1603.63 1421.11,1605.36 1418.70,1605.34 C1412.80,1605.26 1409.61,1604.97 1405.52,1603.21 C1405.00,1602.98 1404.02,1602.54 1402.56,1601.87" fill="none" stroke="rgb(48, 48, 48)" stroke-width="7.00" stroke-opacity="1.00" stroke-linejoin="round"/>
<path d="M1666.56,1327.21 C1666.56,1327.21 1666.56,1327.35 1666.56,1327.35 C1665.87,1325.25 1662.29,1319.98 1660.14,1317.64 C1657.51,1314.82 1653.27,1311.48 1650.25,1309.86 C1644.90,1307.08 1637.73,1306.96 1637.15,1306.96 C1636.32,1307.30 1638.92,1322.58 1638.87,1330.98 C1638.76,1342.15 1634.58,1371.16 1634.55,1371.76 C1634.22,1377.03 1633.52,1380.16 1631.45,1385.43 C1630.11,1389.01 1625.90,1406.86 1625.18,1410.95 C1624.90,1412.09 1623.68,1415.99 1623.22,1417.66 C1622.94,1418.52 1622.38,1419.73 1622.23,1419.97" fill="none" stroke="rgb(48, 48, 48)" stroke-width="7.00" stroke-opacity="1.00" stroke-linejoin="round"/>
<path d="M1696.61,1329.10 C1696.61,1329.10 1696.00,1328.95 1696.00,1328.95 C1695.12,1326.41 1694.67,1324.54 1693.91,1319.64 C1693.29,1315.44 1693.05,1308.59 1693.68,1304.90 C1694.13,1302.37 1697.09,1293.35 1698.47,1291.25 C1699.30,1290.00 1704.73,1285.02 1706.90,1283.05 C1708.88,1281.25 1712.79,1279.98 1718.30,1278.67 C1725.27,1277.10 1733.33,1277.39 1744.18,1276.49 C1752.19,1275.85 1766.69,1275.89 1772.37,1277.05 C1783.53,1279.76 1787.00,1281.07 1798.77,1286.31 C1802.74,1288.15 1816.10,1296.10 1823.16,1300.31 C1829.26,1303.76 1837.24,1308.25 1839.36,1310.59 C1839.36,1310.59 1838.93,1310.60 1838.93,1310.60" fill="none" stroke="rgb(48, 48, 48)" stroke-width="7.00" stroke-opacity="1.00" stroke-linejoin="round"/>
<path d="M1705.52,1330.96 C1705.31,1326.91 1706.11,1321.95 1707.85,1318.02 C1709.24,1315.00 1712.12,1311.20 1715.34,1307.70 C1721.15,1301.44 1729.11,1294.92 1736.53,1290.89 C1745.72,1286.08 1753.43,1283.03 1760.26,1281.24 C1764.69,1280.09 1773.31,1278.78 1774.06,1278.68 C1774.17,1278.67 1774.24,1278.66 1774.30,1278.66" fill="none" stroke="rgb(48, 48, 48)" stroke-width="7.00" stroke-opacity="1.00" stroke-linejoin="round"/>
<path d="M1716.24,1331.00 C1716.24,1331.00 1715.84,1331.46 1715.84,1331.46 C1715.90,1330.19 1716.32,1328.55 1717.26,1326.75 C1719.17,1323.08 1723.74,1317.40 1725.64,1315.36 C1729.53,1311.24 1740.99,1302.67 1747.60,1299.24 C1753.95,1295.98 1764.72,1291.60 1773.94,1289.03 C1779.39,1287.54 1785.08,1286.22 1788.34,1285.95 C1794.76,1285.44 1795.72,1285.48 1795.95,1285.74 C1795.95,1285.74 1795.97,1286.54 1795.97,1286.54" fill="none" stroke="rgb(48, 48, 48)" stroke-width="7.00" stroke-opacity="1.00" stroke-linejoin="round"/>
<path d="M1737.39,1332.87 C1737.20,1332.45 1737.17,1332.03 1737.30,1331.60 C1737.85,1329.84 1739.50,1327.47 1741.09,1326.22 C1748.28,1320.46 1754.29,1316.64 1764.24,1311.49 C1772.89,1307.18 1785.80,1301.67 1789.31,1300.49 C1794.38,1298.80 1811.00,1297.89 1813.49,1297.32 C1814.09,1297.21 1814.71,1297.22 1815.33,1297.16 C1815.52,1297.14 1815.73,1297.09 1815.97,1297.00" fill="none" stroke="rgb(48, 48, 48)" stroke-width="7.00" stroke-opacity="1.00" stroke-linejoin="round"/>
<path d="M1845.86,1348.55 C1847.81,1348.68 1848.93,1348.87 1850.65,1349.43 C1856.21,1351.26 1866.46,1357.01 1874.90,1363.15 C1888.14,1372.91 1913.71,1391.91 1926.03,1401.15 C1934.32,1407.59 1943.69,1415.82 1947.34,1419.50 C1950.94,1423.14 1962.80,1437.29 1968.10,1443.69 C1974.96,1451.92 1977.80,1456.19 1983.43,1465.54 C1987.12,1471.81 1995.61,1485.64 1997.01,1487.85" fill="none" stroke="rgb(48, 48, 48)" stroke-width="7.00" stroke-opacity="1.00" stroke-linejoin="round"/>
<path d="M1995.81,1488.32 C1995.81,1488.32 1995.02,1487.42 1995.02,1487.42" fill="none" stroke="rgb(48, 48, 48)" stroke-width="7.00" stroke-opacity="1.00" stroke-linejoin="round"/>
<path d="M1970.83,1418.13 C1975.04,1423.57 1986.84,1438.98 1989.24,1442.35 C1993.91,1448.96 2001.14,1462.08 2004.02,1468.42 C2006.76,1474.61 2019.26,1506.67 2020.15,1509.08 C2021.21,1511.98 2032.93,1550.50 2037.58,1565.49 C2039.71,1572.53 2042.39,1585.45 2044.05,1593.65 C2046.02,1603.05 2048.14,1609.70 2050.77,1620.63 C2051.98,1625.98 2055.55,1647.59 2056.43,1652.52 C2057.89,1660.35 2062.84,1677.35 2063.25,1679.32 C2063.90,1682.48 2067.19,1702.98 2068.91,1710.17 C2070.77,1717.48 2075.42,1735.41 2076.73,1737.82 C2078.18,1740.49 2079.40,1744.15 2080.99,1746.87" fill="none" stroke="rgb(48, 48, 48)" stroke-width="7.00" stroke-opacity="1.00" stroke-linejoin="round"/>
<path d="M1497.81,1612.17 C1493.83,1618.50 1488.75,1630.84 1487.15,1637.87 C1485.58,1644.90 1484.32,1657.36 1484.05,1666.18 C1483.90,1673.36 1484.33,1689.64 1485.33,1695.29 C1485.73,1697.51 1487.20,1703.77 1487.97,1707.58 C1488.53,1710.36 1489.75,1717.11 1491.80,1721.54 C1493.63,1725.41 1506.02,1744.66 1508.51,1747.71 C1510.88,1750.55 1525.42,1760.74 1531.83,1765.19 C1539.53,1770.36 1551.12,1776.34 1556.49,1777.74 C1558.73,1778.32 1561.63,1778.85 1563.09,1778.98" fill="none" stroke="rgb(48, 48, 48)" stroke-width="7.00" stroke-opacity="1.00" stroke-linejoin="round"/>
<path d="M1516.59,1648.58 C1515.36,1655.86 1514.10,1673.54 1514.10,1677.99 C1514.12,1686.30 1516.36,1700.97 1518.73,1709.35 C1521.00,1717.27 1525.45,1727.88 1530.77,1738.91 C1535.36,1748.30 1540.57,1757.24 1546.87,1763.99 C1553.78,1771.37 1558.19,1775.36 1561.42,1778.00" fill="none" stroke="rgb(48, 48, 48)" stroke-width="7.00" stroke-opacity="1.00" stroke-linejoin="round"/>
<path d="M1520.77,1662.01 C1520.77,1662.56 1520.76,1664.74 1520.81,1665.52 C1521.17,1671.30 1524.88,1684.46 1527.88,1691.40 C1530.61,1697.67 1537.71,1711.01 1541.17,1716.25 C1545.30,1722.48 1552.76,1731.95 1558.22,1737.21 C1572.17,1750.32 1590.00,1765.43 1592.63,1767.33 C1594.72,1768.82 1600.07,1771.49 1601.68,1772.46 C1602.70,1773.07 1610.16,1778.24 1613.70,1780.13 C1619.27,1783.04 1623.96,1785.68 1626.44,1787.79 C1627.07,1788.33 1630.02,1791.33 1630.01,1791.32 C1630.01,1791.32 1629.28,1791.32 1629.28,1791.32" fill="none" stroke="rgb(48, 48, 48)" stroke-width="7.00" stroke-opacity="1.00" stroke-linejoin="round"/>
<path d="M1633.25,1803.51 C1634.56,1810.11 1637.53,1825.98 1637.48,1829.58 C1637.39,1832.28 1637.37,1838.78 1637.37,1842.28 C1637.39,1847.59 1636.60,1854.36 1635.46,1857.71 C1633.57,1863.11 1627.03,1872.31 1620.60,1879.24 C1618.21,1881.82 1615.02,1883.27 1609.19,1885.22 C1605.64,1886.36 1598.63,1888.13 1597.38,1887.96 C1596.15,1887.78 1594.42,1886.93 1593.50,1886.22" fill="none" stroke="rgb(48, 48, 48)" stroke-width="7.00" stroke-opacity="1.00" stroke-linejoin="round"/>
<path d="M1598.84,1892.91 C1600.30,1893.95 1601.28,1894.59 1601.76,1894.84 C1603.00,1895.47 1610.62,1896.79 1615.20,1896.68 C1616.04,1896.65 1625.09,1895.85 1627.86,1895.33 C1631.15,1894.71 1636.76,1892.69 1639.71,1891.14 C1645.33,1888.15 1658.92,1878.42 1664.32,1873.68 C1667.60,1870.78 1672.16,1866.20 1673.92,1863.89 C1678.25,1858.11 1682.71,1847.43 1682.49,1847.35" fill="none" stroke="rgb(48, 48, 48)" stroke-width="7.00" stroke-opacity="1.00" stroke-linejoin="round"/>
<path d="M1683.66,1857.56 C1683.66,1858.01 1683.66,1858.47 1683.66,1858.93 C1683.65,1863.80 1681.49,1874.94 1679.18,1881.06 C1678.35,1883.22 1675.80,1888.84 1674.10,1891.85 C1671.51,1896.31 1669.95,1898.57 1667.56,1900.73 C1665.17,1902.83 1657.79,1909.27 1657.12,1909.65 C1665.34,1907.17 1672.03,1904.79 1680.63,1901.24 C1686.39,1898.78 1699.33,1891.34 1700.16,1890.63 C1701.52,1889.42 1715.62,1873.96 1716.84,1871.88 C1718.12,1869.59 1720.87,1864.58 1722.59,1860.99 C1725.15,1855.47 1730.02,1841.87 1730.35,1841.32" fill="none" stroke="rgb(48, 48, 48)" stroke-width="7.00" stroke-opacity="1.00" stroke-linejoin="round"/>
<path d="M1733.63,1843.38 C1733.63,1843.35 1733.63,1844.60 1733.63,1845.76 C1733.68,1850.34 1733.46,1854.61 1732.93,1857.95 C1732.41,1861.07 1729.96,1867.83 1727.93,1870.90 C1727.08,1872.17 1725.47,1874.23 1724.35,1875.55 C1721.67,1878.64 1721.03,1879.30 1721.02,1879.19" fill="none" stroke="rgb(48, 48, 48)" stroke-width="7.00" stroke-opacity="1.00" stroke-linejoin="round"/>
<path d="M1721.90,1878.80 C1722.75,1878.57 1724.67,1877.45 1726.06,1876.62 C1726.73,1876.27 1735.47,1872.72 1738.67,1870.61 C1743.60,1867.32 1751.35,1861.41 1759.07,1854.15 C1765.19,1848.36 1773.60,1838.20 1774.49,1836.22 C1775.17,1834.68 1779.09,1818.89 1779.12,1818.87 C1779.16,1818.83 1779.31,1818.84 1779.57,1818.92 C1779.57,1818.92 1779.47,1820.18 1779.47,1820.18" fill="none" stroke="rgb(48, 48, 48)" stroke-width="7.00" stroke-opacity="1.00" stroke-linejoin="round"/>
<path d="M1780.83,1806.08 C1781.48,1807.78 1782.66,1810.89 1783.20,1812.30 C1786.01,1819.77 1788.63,1831.90 1789.09,1836.32 C1789.51,1840.42 1792.00,1912.42 1791.52,1920.30" fill="none" stroke="rgb(48, 48, 48)" stroke-width="7.00" stroke-opacity="1.00" stroke-linejoin="round"/>
<path d="M1969.24,1656.73 C1968.96,1657.45 1968.79,1657.91 1968.72,1658.11 C1968.10,1659.94 1964.86,1723.92 1964.56,1739.55 C1964.54,1749.21 1964.93,1760.77 1966.30,1767.72 C1967.32,1773.03 1971.83,1809.17 1973.83,1817.28 C1977.08,1829.72 1979.88,1841.39 1980.36,1842.80 C1980.57,1843.39 1982.47,1848.56 1983.53,1852.50 C1984.35,1855.37 1987.84,1861.41 1988.17,1863.43 C1988.36,1864.52 1988.47,1867.39 1989.03,1869.45 C1989.49,1871.18 1990.26,1874.07 1990.57,1875.22 C1990.16,1875.32 1989.91,1875.37 1989.81,1875.39 C1989.72,1875.40 1989.66,1875.40 1989.64,1875.39" fill="none" stroke="rgb(48, 48, 48)" stroke-width="7.00" stroke-opacity="1.00" stroke-linejoin="round"/>
<path d="M1792.94,1813.26 C1798.02,1812.03 1809.45,1806.18 1816.84,1802.81 C1819.82,1801.36 1825.88,1795.40 1828.01,1794.31 C1833.42,1791.93 1841.44,1788.20 1849.59,1783.03 C1858.42,1777.14 1868.14,1771.25 1873.25,1768.04 C1878.79,1764.39 1889.02,1756.45 1894.51,1752.12 C1899.53,1748.06 1908.16,1739.44 1912.80,1735.52 C1913.80,1734.67 1918.56,1730.70 1921.29,1726.37 C1923.59,1722.68 1956.31,1662.44 1959.08,1657.34 C1953.25,1670.20 1939.84,1699.53 1933.55,1712.61 C1927.69,1724.23 1923.37,1730.94 1919.29,1736.88 C1910.18,1749.38 1899.64,1765.75 1886.97,1784.00 C1885.26,1786.45 1875.83,1798.35 1870.13,1804.31 C1859.37,1815.06 1837.55,1836.86 1829.94,1843.70 C1822.60,1850.21 1805.89,1862.05 1803.23,1863.02 C1803.23,1863.02 1799.99,1865.60 1799.99,1865.60 C1801.20,1862.76 1802.50,1857.36 1803.14,1852.08 C1803.58,1848.25 1803.31,1840.24 1802.08,1837.63 C1801.72,1836.87 1800.13,1833.79 1800.25,1832.99 C1800.42,1831.90 1801.31,1830.94 1801.25,1829.84 C1801.22,1829.15 1798.66,1826.38 1797.71,1825.32 C1799.25,1825.79 1801.14,1826.29 1801.87,1826.28 C1803.65,1826.24 1818.17,1816.41 1824.95,1811.80 C1848.22,1795.88 1874.69,1775.75 1875.73,1774.96 C1865.45,1784.75 1844.66,1804.42 1834.15,1814.31 C1828.75,1819.57 1820.42,1829.95 1816.35,1834.86 C1814.69,1837.03 1814.11,1838.41 1814.04,1839.99" fill="none" stroke="rgb(48, 48, 48)" stroke-width="24.00" stroke-opacity="1.00" stroke-linejoin="round"/>
<path d="M1967.92,1778.61 C1968.51,1780.09 1971.87,1787.17 1976.06,1797.31 C1979.18,1804.55 1985.86,1818.88 1988.94,1824.08 C1991.13,1827.75 1999.18,1839.68 2000.41,1841.72 C2000.40,1840.96 1998.97,1825.77 1998.62,1814.61 C1998.40,1801.38 1998.58,1793.19 1999.16,1792.24" fill="none" stroke="rgb(48, 48, 48)" stroke-width="7.00" stroke-opacity="1.00" stroke-linejoin="round"/>
<path d="M1974.57,1697.40 C1974.56,1700.70 1974.54,1707.93 1974.87,1717.33 C1975.17,1723.35 1977.80,1736.89 1979.60,1742.62 C1981.54,1748.76 1986.93,1760.52 1990.37,1766.30 C1996.16,1775.72 2002.49,1785.36 2008.18,1792.91 C2013.64,1800.00 2021.66,1807.75 2025.85,1810.87 C2028.15,1812.58 2043.24,1822.56 2048.74,1825.39 C2051.68,1826.88 2057.36,1829.21 2060.94,1830.50 C2068.72,1833.26 2075.69,1833.43 2081.02,1833.41 C2081.02,1833.41 2080.67,1832.98 2080.67,1832.98" fill="none" stroke="rgb(48, 48, 48)" stroke-width="7.00" stroke-opacity="1.00" stroke-linejoin="round"/>
<path d="M2052.03,1773.70 C2052.15,1779.25 2055.47,1789.05 2058.80,1795.89 C2062.36,1803.14 2068.87,1812.97 2074.31,1818.79 C2077.41,1822.07 2081.49,1826.82 2089.86,1834.17 C2089.86,1834.17 2082.82,1827.46 2082.82,1827.46" fill="none" stroke="rgb(48, 48, 48)" stroke-width="7.00" stroke-opacity="1.00" stroke-linejoin="round"/>
<path d="M2057.73,1775.91 C2059.78,1779.05 2063.23,1784.03 2064.69,1785.62 C2068.11,1789.30 2078.15,1796.41 2083.23,1798.55 C2089.33,1801.07 2105.36,1805.09 2111.97,1805.47 C2129.64,1806.44 2137.79,1803.93 2139.20,1803.20 C2138.45,1802.81 2138.00,1802.58 2137.84,1802.50 C2137.69,1802.42 2137.62,1802.39 2137.63,1802.41" fill="none" stroke="rgb(48, 48, 48)" stroke-width="7.00" stroke-opacity="1.00" stroke-linejoin="round"/>
<path d="M2082.57,1752.54 C2082.52,1752.65 2082.52,1752.80 2082.57,1753.00 C2083.04,1754.80 2085.84,1759.99 2087.79,1762.74 C2092.03,1768.67 2102.83,1779.60 2108.39,1784.33 C2114.72,1789.71 2120.63,1793.41 2129.23,1797.06 C2130.05,1797.41 2138.58,1799.47 2141.26,1800.00 C2141.45,1800.12 2141.70,1800.16 2142.24,1800.14 C2142.32,1800.14 2142.39,1800.14 2142.45,1800.14" fill="none" stroke="rgb(48, 48, 48)" stroke-width="7.00" stroke-opacity="1.00" stroke-linejoin="round"/>
<path d="M1787.94,1868.35 C1787.94,1868.35 1789.68,1867.76 1789.68,1867.76 C1769.90,1877.02 1760.01,1883.08 1754.36,1887.43 C1754.37,1887.39 1753.75,1890.79 1751.95,1897.16 C1751.07,1900.22 1743.44,1915.62 1740.03,1922.51 C1737.00,1928.81 1733.55,1938.70 1731.33,1948.45 C1729.77,1955.52 1725.74,1992.86 1725.38,2001.30 C1725.00,2014.70 1724.82,2042.21 1725.78,2059.60 C1727.69,2083.34 1730.11,2098.34 1731.10,2099.38 C1731.10,2099.38 1731.87,2098.20 1731.87,2098.20" fill="none" stroke="rgb(48, 48, 48)" stroke-width="7.00" stroke-opacity="1.00" stroke-linejoin="round"/>
<path d="M1734.35,2096.92 C1734.35,2096.92 1733.02,2099.21 1733.02,2099.21 C1733.02,2099.24 1733.01,2099.15 1733.01,2099.12 C1733.04,2092.56 1734.60,2083.93 1737.14,2074.51 C1739.37,2067.03 1742.78,2059.22 1747.46,2049.86 C1757.58,2029.74 1762.76,2021.86 1763.75,2021.50 C1764.18,2021.36 1770.60,2022.01 1772.90,2022.38 C1777.00,2023.06 1782.87,2025.27 1784.89,2026.75 C1788.83,2029.70 1806.74,2040.16 1808.36,2041.44" fill="none" stroke="rgb(48, 48, 48)" stroke-width="7.00" stroke-opacity="1.00" stroke-linejoin="round"/>
<path d="M1984.66,1847.82 C1984.66,1847.82 1984.22,1847.18 1984.22,1847.18 C1984.22,1847.18 1982.81,1846.85 1982.81,1846.85 C1987.30,1848.80 1997.27,1850.10 2009.34,1850.51 C2011.32,1850.55 2014.57,1850.61 2015.85,1850.63 C2015.85,1850.63 2034.39,1911.10 2034.39,1911.10 C2033.94,1911.35 2033.65,1911.43 2033.22,1911.40 C2033.15,1911.39 2033.08,1911.39 2033.00,1911.40" fill="none" stroke="rgb(48, 48, 48)" stroke-width="7.00" stroke-opacity="1.00" stroke-linejoin="round"/>
<path d="M1994.82,1869.39 C1994.89,1869.60 1994.42,1872.09 1993.88,1873.88 C1993.77,1874.27 1977.51,1908.64 1975.68,1911.27 C1970.56,1918.47 1965.27,1924.03 1956.68,1932.71 C1940.25,1949.30 1923.04,1967.46 1915.43,1973.57 C1910.07,1977.69 1895.10,1989.69 1893.90,1990.63 C1889.77,1993.80 1872.27,2002.97 1868.53,2004.72 C1860.27,2008.53 1840.94,2014.23 1839.76,2014.99 C1839.73,2015.30 1839.18,2020.34 1837.76,2022.57 C1836.54,2024.46 1809.19,2056.36 1799.06,2068.37 C1796.62,2071.31 1790.82,2079.68 1789.90,2080.56 C1789.64,2080.88 1795.11,2095.23 1797.30,2103.13 C1799.39,2111.12 1804.24,2130.17 1804.58,2132.89 C1804.63,2133.26 1804.64,2133.70 1804.62,2134.20 C1804.61,2134.33 1804.61,2134.49 1804.62,2134.68" fill="none" stroke="rgb(48, 48, 48)" stroke-width="7.00" stroke-opacity="1.00" stroke-linejoin="round"/>
<path d="M1824.16,2061.12 C1824.03,2061.17 1823.94,2061.20 1823.88,2061.22 C1823.82,2061.23 1823.71,2061.24 1823.54,2061.24 C1823.54,2061.24 1823.48,2060.86 1823.48,2060.86 C1826.67,2057.05 1836.09,2049.87 1845.64,2043.14 C1855.51,2036.32 1863.90,2030.86 1867.21,2030.14 C1867.64,2030.05 1868.20,2030.05 1868.89,2030.14 C1870.08,2031.50 1883.47,2044.44 1888.23,2049.44 C1892.60,2054.23 1902.56,2065.79 1908.03,2072.48 C1914.55,2080.66 1919.87,2088.32 1923.38,2093.97 C1932.21,2108.63 1941.37,2122.23 1945.27,2129.48 C1947.34,2133.46 1949.96,2141.96 1950.26,2142.97 C1949.96,2142.64 1949.67,2142.31 1949.37,2141.97 C1949.27,2141.86 1949.16,2141.75 1949.06,2141.64" fill="none" stroke="rgb(48, 48, 48)" stroke-width="7.00" stroke-opacity="1.00" stroke-linejoin="round"/>
<path d="M1950.56,2146.06 C1950.57,2146.10 1952.51,2143.96 1953.54,2142.71 C1956.21,2139.44 1963.20,2125.62 1966.51,2121.37 C1972.02,2114.33 1978.89,2102.24 1980.05,2100.46 C1982.29,2097.01 1989.56,2081.94 1992.87,2074.93 C1994.66,2071.02 1997.72,2060.55 2001.18,2051.59 C2003.94,2044.34 2011.09,2022.34 2015.19,2004.05 C2016.99,1995.82 2019.88,1982.48 2020.35,1976.87 C2021.38,1965.11 2024.46,1934.91 2024.15,1931.36 C2025.27,1931.01 2025.97,1930.61 2028.61,1928.80 C2030.05,1927.77 2030.63,1926.94 2031.49,1924.71 C2031.65,1924.29 2033.41,1919.79 2033.89,1918.55" fill="none" stroke="rgb(48, 48, 48)" stroke-width="7.00" stroke-opacity="1.00" stroke-linejoin="round"/>
<path d="M1793.53,1929.07 C1793.53,1929.06 1793.53,1929.10 1793.53,1929.11 C1793.63,1938.35 1793.92,1946.00 1794.69,1956.27 C1795.75,1966.99 1797.40,1978.44 1799.06,1983.63 C1800.11,1986.85 1807.75,2006.46 1809.27,2009.91 C1811.30,2014.42 1812.97,2017.53 1815.56,2020.27 C1819.99,2024.85 1823.67,2028.97 1823.90,2029.13 C1824.21,2029.35 1825.02,2029.84 1826.34,2030.61 C1826.34,2030.61 1826.20,2027.57 1826.20,2027.57" fill="none" stroke="rgb(48, 48, 48)" stroke-width="7.00" stroke-opacity="1.00" stroke-linejoin="round"/>
<path d="M1775.80,2023.32 C1775.80,2023.32 1775.80,2023.16 1775.80,2023.16 C1775.94,2028.06 1777.33,2037.39 1778.82,2050.36 C1780.33,2063.32 1782.68,2080.30 1786.04,2104.70 C1786.38,2107.32 1786.82,2108.36 1788.38,2110.39 C1788.78,2110.89 1794.24,2118.81 1796.50,2122.14 C1798.99,2125.84 1800.22,2128.23 1801.70,2132.76 C1802.97,2136.71 1803.28,2141.57 1803.35,2142.68 C1803.39,2143.31 1803.59,2145.85 1803.58,2145.74" fill="none" stroke="rgb(48, 48, 48)" stroke-width="7.00" stroke-opacity="1.00" stroke-linejoin="round"/>
<path d="M2037.33,1902.45 C2038.97,1902.96 2044.07,1907.71 2047.03,1910.46 C2050.75,1913.90 2053.05,1915.43 2058.25,1918.04 C2067.15,1922.40 2079.44,1927.21 2085.89,1929.70 C2099.93,1935.56 2123.39,1949.71 2136.48,1955.84 C2144.24,1959.34 2158.94,1966.04 2165.89,1969.24 C2170.58,1971.52 2187.76,1981.55 2191.80,1983.64 C2193.94,1984.74 2201.76,1988.46 2203.75,1989.58 C2206.01,1990.86 2212.65,1995.26 2215.93,1996.88 C2221.37,1999.40 2230.49,2003.74 2238.49,2008.71 C2247.04,2014.14 2257.90,2022.28 2263.30,2028.54 C2272.29,2039.11 2285.55,2057.26 2286.46,2059.32 C2287.00,2060.54 2290.69,2069.89 2291.52,2072.17 C2292.12,2073.81 2293.38,2078.08 2294.10,2078.20" fill="none" stroke="rgb(48, 48, 48)" stroke-width="7.00" stroke-opacity="1.00" stroke-linejoin="round"/>
<path d="M1420.40,2248.31 C1420.03,2246.45 1419.81,2245.30 1419.74,2244.86 C1419.44,2242.79 1420.99,2237.59 1422.83,2234.66 C1424.49,2232.10 1427.34,2230.35 1431.34,2228.93 C1433.91,2227.96 1439.92,2224.94 1441.78,2223.79 C1443.75,2222.53 1444.23,2221.43 1444.25,2221.10 C1444.40,2218.54 1449.48,2207.64 1454.14,2198.82 C1457.63,2192.41 1465.24,2180.99 1467.42,2176.33 C1469.00,2172.94 1477.93,2156.10 1478.70,2153.72 C1478.97,2152.89 1480.66,2146.43 1482.22,2142.19 C1489.84,2122.60 1498.77,2102.56 1498.87,2102.31 C1499.96,2099.84 1503.99,2093.17 1507.17,2088.19 C1511.54,2081.31 1513.50,2075.05 1517.99,2065.32 C1520.45,2060.03 1524.18,2053.32 1524.46,2053.03 C1525.69,2051.78 1551.63,2035.60 1572.35,2023.99 C1591.77,2012.98 1606.53,2005.38 1625.97,1993.70 C1634.65,1988.64 1647.34,1982.80 1649.08,1981.70 C1653.81,1978.56 1684.63,1960.30 1691.89,1956.55 C1691.89,1950.53 1692.35,1946.78 1694.50,1945.14 C1696.02,1944.05 1704.55,1941.35 1706.09,1940.95 C1707.98,1940.49 1714.44,1941.89 1718.06,1942.66 C1724.71,1944.08 1725.96,1944.28 1728.11,1944.53 C1728.11,1944.53 1725.96,1946.26 1725.96,1946.26" fill="none" stroke="rgb(48, 48, 48)" stroke-width="7.00" stroke-opacity="1.00" stroke-linejoin="round"/>
<path d="M2270.60,2069.23 C2270.41,2069.12 2271.43,2070.72 2272.25,2071.64 C2280.63,2080.96 2300.96,2092.66 2305.39,2096.73 C2306.91,2098.14 2312.36,2103.97 2314.30,2106.56 C2316.64,2109.79 2318.38,2115.35 2319.04,2120.45 C2319.42,2123.60 2319.51,2131.45 2319.46,2132.08 C2319.23,2135.12 2316.56,2145.36 2316.25,2146.71 C2315.31,2150.82 2315.48,2159.67 2315.49,2160.67 C2315.51,2161.49 2315.49,2164.34 2315.49,2164.34" fill="none" stroke="rgb(48, 48, 48)" stroke-width="7.00" stroke-opacity="1.00" stroke-linejoin="round"/>
<path d="M2319.50,2188.00 C2319.49,2187.99 2319.49,2188.03 2319.50,2188.04 C2319.92,2194.58 2321.89,2204.43 2323.42,2211.45 C2330.71,2242.12 2346.07,2309.31 2352.08,2331.36 C2361.46,2362.25 2375.34,2408.48 2379.83,2423.82 C2382.44,2432.14 2386.35,2442.58 2389.83,2449.55 C2390.96,2451.82 2395.68,2454.74 2396.94,2455.89 C2403.25,2461.68 2410.95,2470.94 2414.90,2478.15 C2416.54,2481.14 2420.43,2489.28 2421.32,2491.95 C2422.21,2494.69 2422.51,2503.18 2421.76,2505.10 C2420.79,2507.51 2413.80,2519.50 2407.36,2529.35 C2402.75,2536.24 2393.83,2549.75 2392.98,2553.58 C2392.94,2553.79 2394.64,2571.12 2394.41,2577.84 C2394.41,2577.84 2392.12,2577.93 2392.12,2577.93" fill="none" stroke="rgb(48, 48, 48)" stroke-width="7.00" stroke-opacity="1.00" stroke-linejoin="round"/>
<path d="M2095.53,2514.02 C2095.73,2520.44 2096.32,2535.23 2097.78,2543.83 C2100.31,2558.50 2107.99,2580.52 2114.38,2596.20 C2114.38,2596.20 2114.48,2593.41 2114.48,2593.41" fill="none" stroke="rgb(48, 48, 48)" stroke-width="7.00" stroke-opacity="1.00" stroke-linejoin="round"/>
<path d="M2099.89,2512.24 C2100.15,2512.27 2102.31,2512.12 2103.14,2511.91 C2103.47,2511.83 2123.76,2503.30 2132.23,2499.76 C2139.71,2496.79 2153.96,2491.69 2158.59,2490.28 C2176.76,2485.28 2207.23,2477.52 2224.22,2473.25 C2239.90,2469.23 2280.52,2458.14 2281.30,2457.98 C2282.75,2457.70 2285.06,2457.45 2286.33,2457.39 C2286.61,2457.08 2294.39,2495.29 2294.38,2498.92 C2294.36,2501.73 2292.11,2517.73 2290.43,2524.23 C2289.82,2526.57 2285.40,2544.45 2284.32,2552.99 C2283.90,2556.50 2283.48,2562.47 2283.43,2566.10 C2283.42,2569.70 2284.85,2575.98 2286.89,2578.48 C2287.86,2579.63 2289.10,2580.50 2290.90,2581.45 C2290.90,2581.45 2290.90,2581.31 2290.90,2581.31" fill="none" stroke="rgb(48, 48, 48)" stroke-width="7.00" stroke-opacity="1.00" stroke-linejoin="round"/>
<path d="M2299.19,2579.48 C2300.74,2579.48 2306.71,2577.92 2308.92,2577.01 C2315.59,2574.20 2324.72,2566.78 2331.34,2560.36 C2339.35,2552.37 2345.70,2544.76 2350.06,2541.08 C2352.04,2539.40 2353.82,2537.03 2354.38,2536.13 C2354.82,2535.61 2357.44,2538.99 2360.37,2543.71 C2362.50,2547.16 2367.01,2554.33 2368.39,2556.18 C2370.88,2559.49 2375.90,2564.09 2378.09,2566.93 C2380.02,2569.46 2389.26,2583.18 2393.82,2589.71 C2396.17,2593.17 2400.89,2603.35 2404.60,2610.20 C2407.98,2616.52 2412.45,2630.20 2411.93,2631.81 C2411.06,2634.25 2397.27,2653.32 2397.27,2653.35 C2397.49,2654.37 2396.94,2658.71 2396.20,2662.58 C2395.46,2666.18 2392.69,2672.58 2390.53,2676.37 C2386.65,2683.08 2375.29,2699.37 2371.21,2703.20 C2369.65,2704.66 2362.26,2709.49 2361.37,2710.08 C2358.88,2711.71 2352.04,2713.06 2348.54,2713.75 C2347.09,2714.05 2340.28,2716.70 2336.49,2716.98 C2331.04,2717.37 2321.03,2717.76 2320.07,2717.71 C2318.19,2717.56 2316.37,2716.61 2316.02,2715.32 C2315.79,2714.39 2315.40,2708.31 2315.30,2707.47 C2315.13,2705.88 2314.21,2702.58 2314.06,2701.81 C2314.01,2701.56 2314.01,2701.27 2314.06,2700.92" fill="none" stroke="rgb(48, 48, 48)" stroke-width="7.00" stroke-opacity="1.00" stroke-linejoin="round"/>
<path d="M1856.27,2639.42 C1856.27,2639.42 1855.92,2639.42 1855.92,2639.42 C1859.05,2639.18 1877.35,2642.02 1881.58,2642.54 C1889.17,2643.45 1903.08,2643.10 1909.93,2642.97 C1921.72,2642.83 1952.81,2637.67 1966.88,2635.25 C1970.50,2634.63 1990.87,2629.98 1995.28,2629.21 C1998.85,2628.58 2016.80,2626.52 2022.80,2625.43 C2035.21,2623.02 2043.53,2621.63 2050.38,2621.05 C2055.72,2620.57 2065.56,2618.58 2075.83,2615.27 C2090.27,2610.33 2119.58,2600.32 2134.44,2595.26 C2147.07,2591.25 2153.27,2589.76 2161.97,2588.18 C2169.33,2587.09 2184.36,2584.92 2192.03,2583.84 C2199.56,2582.66 2210.43,2580.61 2220.82,2580.23 C2229.24,2580.11 2245.20,2579.93 2252.74,2579.86 C2258.17,2579.85 2269.44,2582.56 2275.70,2584.39 C2282.35,2586.34 2297.60,2593.61 2302.08,2594.96 C2307.97,2596.62 2312.25,2598.08 2314.39,2599.29 C2319.45,2602.17 2333.51,2611.49 2337.14,2615.88 C2338.28,2617.28 2339.58,2619.31 2340.08,2620.40 C2340.11,2620.46 2339.92,2620.45 2339.87,2620.40" fill="none" stroke="rgb(48, 48, 48)" stroke-width="7.00" stroke-opacity="1.00" stroke-linejoin="round"/>
<path d="M1896.59,2732.09 C1899.63,2731.96 1903.47,2732.24 1906.76,2732.80 C1912.20,2733.77 1958.73,2739.55 1963.81,2739.69 C1978.13,2739.82 2011.13,2740.02 2029.83,2740.09 C2054.27,2740.07 2079.32,2738.51 2086.52,2738.04 C2094.13,2737.65 2112.14,2737.29 2114.87,2737.16 C2126.51,2736.61 2196.58,2727.84 2198.60,2727.32 C2213.15,2723.39 2243.57,2715.57 2259.44,2711.68 C2275.34,2708.10 2300.71,2702.83 2318.11,2698.07 C2325.58,2696.21 2336.20,2693.75 2338.94,2693.83" fill="none" stroke="rgb(48, 48, 48)" stroke-width="7.00" stroke-opacity="1.00" stroke-linejoin="round"/>
<path d="M1583.20,2122.93 C1583.20,2122.93 1583.20,2122.55 1583.20,2122.55 C1583.57,2125.30 1586.70,2140.38 1588.29,2147.90 C1592.14,2163.82 1602.01,2194.71 1606.76,2208.96 C1610.11,2219.00 1611.64,2224.43 1614.05,2234.17 C1616.02,2242.56 1619.64,2258.35 1621.01,2267.33 C1621.94,2273.21 1623.40,2282.79 1623.58,2294.05 C1623.63,2302.43 1623.69,2317.76 1623.69,2324.71 C1623.61,2333.65 1622.24,2346.43 1621.45,2353.31 C1620.52,2361.68 1620.08,2373.71 1620.22,2384.26 C1620.35,2391.98 1620.69,2410.73 1620.98,2415.33 C1621.48,2422.98 1624.61,2440.36 1625.86,2446.06 C1627.70,2453.96 1632.01,2472.23 1632.70,2474.83 C1633.63,2478.26 1639.95,2494.22 1643.02,2502.25 C1648.84,2518.72 1665.05,2573.11 1666.14,2574.85 C1666.04,2574.28 1665.94,2573.72 1665.84,2573.15 C1665.78,2572.86 1665.73,2572.58 1665.67,2572.29" fill="none" stroke="rgb(48, 48, 48)" stroke-width="7.00" stroke-opacity="1.00" stroke-linejoin="round"/>
<path d="M2157.72,2161.42 C2152.95,2167.09 2142.41,2179.79 2138.24,2185.97 C2134.34,2191.79 2128.00,2203.64 2124.04,2212.46 C2120.97,2219.43 2114.78,2235.38 2113.79,2238.34 C2111.65,2244.81 2109.37,2255.40 2107.67,2265.39 C2106.06,2275.76 2104.71,2288.52 2104.78,2296.38 C2104.80,2297.84 2105.11,2308.34 2105.15,2309.02 C2105.40,2313.50 2105.97,2317.30 2107.34,2321.45 C2108.13,2323.81 2115.12,2341.59 2118.17,2348.85 C2122.95,2359.90 2126.22,2369.18 2127.17,2375.44 C2128.40,2383.66 2138.09,2432.96 2138.13,2438.36 C2138.13,2439.20 2138.06,2442.43 2137.97,2442.64 C2137.60,2443.47 2132.14,2445.96 2129.34,2448.72 C2126.47,2451.62 2124.13,2456.34 2123.29,2459.89 C2121.67,2467.06 2121.08,2485.34 2121.52,2489.77 C2121.83,2492.53 2123.72,2495.12 2126.65,2498.68 C2126.65,2498.68 2123.88,2495.75 2123.88,2495.75" fill="none" stroke="rgb(48, 48, 48)" stroke-width="7.00" stroke-opacity="1.00" stroke-linejoin="round"/>
<path d="M2119.54,2306.22 C2119.29,2302.82 2118.75,2295.30 2118.73,2292.70 C2118.71,2287.34 2120.97,2274.38 2123.43,2267.83 C2125.38,2262.71 2133.38,2248.87 2136.58,2244.28 C2140.21,2239.11 2151.55,2226.73 2156.63,2221.25 C2170.52,2206.85 2191.94,2186.72 2201.93,2178.87 C2208.76,2173.59 2221.00,2165.59 2227.43,2162.73 C2233.97,2159.85 2246.18,2157.02 2253.08,2156.55 C2256.35,2156.34 2266.19,2156.44 2266.94,2156.55 C2267.61,2156.67 2270.30,2157.57 2270.74,2158.20 C2271.80,2159.83 2272.61,2162.54 2272.55,2164.39 C2272.36,2168.18 2270.93,2175.01 2269.88,2178.13 C2268.63,2181.76 2266.50,2186.58 2265.00,2189.08 C2262.64,2192.96 2251.81,2204.81 2247.52,2208.11 C2244.20,2210.65 2229.18,2220.08 2222.77,2223.98 C2216.49,2227.63 2202.29,2235.58 2198.60,2237.84 C2194.40,2240.43 2162.78,2260.23 2159.12,2263.59 C2155.56,2266.92 2144.54,2282.83 2141.65,2287.99 C2139.39,2292.09 2137.72,2297.15 2137.26,2301.10 C2136.22,2310.45 2136.22,2314.51 2136.55,2316.80 C2142.30,2316.07 2146.34,2314.94 2149.69,2312.57 C2151.39,2311.33 2167.15,2298.68 2174.21,2294.23 C2181.08,2289.92 2191.82,2284.39 2202.20,2279.85 C2209.40,2276.81 2217.16,2273.68 2218.32,2273.21 C2219.47,2272.77 2220.63,2272.32 2221.78,2271.87" fill="none" stroke="rgb(48, 48, 48)" stroke-width="7.00" stroke-opacity="1.00" stroke-linejoin="round"/>
<path d="M2242.76,2366.91 C2242.34,2367.56 2241.92,2368.06 2240.71,2369.38 C2231.48,2379.48 2209.90,2404.80 2199.86,2416.88 C2189.78,2428.82 2165.10,2456.98 2160.18,2463.29 C2158.51,2465.44 2154.80,2471.90 2153.01,2473.21 C2151.45,2474.31 2149.49,2474.87 2146.50,2475.15 C2143.90,2475.33 2142.63,2475.07 2142.29,2474.11 C2142.26,2473.99 2140.92,2465.86 2140.85,2465.30 C2140.79,2464.88 2140.71,2464.09 2140.61,2462.93" fill="none" stroke="rgb(48, 48, 48)" stroke-width="7.00" stroke-opacity="1.00" stroke-linejoin="round"/>
<path d="M1532.44,2182.72 C1532.60,2183.67 1532.84,2184.31 1533.72,2185.90 C1537.79,2193.40 1545.66,2203.02 1552.57,2210.63 C1563.93,2222.55 1588.20,2246.51 1595.92,2252.47 C1600.57,2256.03 1609.62,2261.87 1610.50,2262.44 C1610.50,2262.44 1610.17,2262.44 1610.17,2262.44" fill="none" stroke="rgb(48, 48, 48)" stroke-width="7.00" stroke-opacity="1.00" stroke-linejoin="round"/>
<path d="M1800.75,2147.96 C1800.76,2150.80 1800.80,2156.68 1800.82,2159.73 C1800.75,2168.15 1800.17,2182.48 1799.80,2190.16 C1799.21,2198.61 1797.83,2211.25 1796.19,2216.90 C1794.63,2222.18 1788.22,2238.22 1785.12,2245.71 C1780.84,2256.14 1777.77,2265.01 1776.43,2272.65 C1774.99,2280.99 1774.79,2294.36 1774.68,2300.84 C1774.50,2318.91 1774.37,2352.99 1774.42,2369.00 C1774.92,2389.00 1777.38,2414.19 1779.29,2429.56 C1780.36,2437.09 1782.34,2449.07 1784.53,2459.55 C1786.23,2466.90 1790.22,2483.45 1792.09,2489.18 C1794.66,2496.99 1798.48,2503.97 1801.28,2510.44 C1802.98,2514.47 1804.98,2521.04 1805.59,2524.83 C1805.98,2527.36 1806.67,2536.61 1806.98,2538.83 C1807.00,2538.96 1808.65,2546.38 1808.80,2550.03 C1808.88,2552.33 1809.49,2567.82 1810.84,2576.88 C1812.37,2586.55 1813.01,2595.50 1813.26,2599.27 C1813.26,2599.12 1813.26,2598.10 1813.26,2597.23 C1813.26,2597.15 1813.26,2596.94 1813.26,2597.01" fill="none" stroke="rgb(48, 48, 48)" stroke-width="7.00" stroke-opacity="1.00" stroke-linejoin="round"/>
<path d="M1597.28,2650.75 C1597.79,2648.69 1598.27,2647.50 1599.39,2645.84 C1603.94,2639.04 1610.08,2632.11 1618.60,2625.05 C1631.40,2614.84 1661.53,2591.24 1668.49,2587.28 C1674.34,2583.99 1687.32,2579.77 1694.29,2578.89 C1701.46,2578.01 1712.48,2577.34 1718.72,2577.98 C1727.90,2578.93 1743.16,2581.73 1750.65,2583.19 C1773.35,2588.10 1789.37,2593.42 1792.52,2594.75 C1794.81,2595.73 1813.85,2605.13 1819.31,2607.66 C1822.20,2609.00 1825.63,2611.12 1826.72,2612.92 C1828.17,2615.34 1846.22,2637.62 1847.50,2639.21" fill="none" stroke="rgb(48, 48, 48)" stroke-width="7.00" stroke-opacity="1.00" stroke-linejoin="round"/>
<path d="M1702.88,2610.47 C1702.99,2610.47 1703.09,2610.47 1703.19,2610.47 C1703.29,2610.47 1703.38,2610.47 1703.47,2610.47 C1696.94,2611.39 1687.57,2615.30 1678.69,2619.35 C1669.17,2623.95 1658.59,2629.81 1653.57,2633.41 C1648.93,2636.75 1638.53,2645.89 1631.77,2652.35 C1626.22,2657.82 1615.14,2669.32 1609.58,2675.20 C1597.40,2688.60 1590.46,2698.77 1589.71,2700.69" fill="none" stroke="rgb(48, 48, 48)" stroke-width="7.00" stroke-opacity="1.00" stroke-linejoin="round"/>
<path d="M1713.94,2651.87 C1713.06,2651.88 1710.59,2651.87 1709.87,2651.90 C1706.45,2652.08 1699.66,2653.76 1697.53,2654.72 C1689.11,2658.56 1667.71,2675.33 1650.98,2689.76 C1625.69,2711.64 1602.94,2736.87 1596.69,2744.14 C1596.69,2744.14 1598.15,2744.14 1598.15,2744.14" fill="none" stroke="rgb(48, 48, 48)" stroke-width="7.00" stroke-opacity="1.00" stroke-linejoin="round"/>
<path d="M1592.95,2749.84 C1592.55,2750.53 1592.18,2751.65 1592.09,2752.90 C1591.98,2755.00 1592.55,2756.90 1593.79,2758.09 C1595.20,2759.39 1597.02,2760.55 1598.47,2761.04 C1601.20,2761.91 1607.18,2761.69 1611.30,2761.01 C1615.25,2760.33 1622.49,2758.19 1625.93,2756.41 C1627.71,2755.47 1641.81,2747.48 1647.73,2742.40 C1650.03,2740.41 1659.69,2731.22 1669.39,2724.01 C1683.58,2713.79 1703.51,2699.54 1709.25,2695.51 C1712.42,2693.28 1716.72,2690.91 1721.36,2689.19 C1732.11,2685.42 1740.26,2682.82 1747.42,2681.88" fill="none" stroke="rgb(48, 48, 48)" stroke-width="7.00" stroke-opacity="1.00" stroke-linejoin="round"/>
<path d="M1752.34,2692.16 C1752.34,2692.16 1752.22,2692.00 1752.22,2692.00 C1747.86,2692.58 1738.50,2696.53 1728.23,2702.63 C1720.80,2707.24 1703.80,2718.07 1700.12,2720.81 C1695.94,2723.95 1685.88,2734.76 1682.42,2739.47 C1680.29,2742.39 1676.54,2748.62 1675.57,2751.25 C1674.46,2754.34 1673.98,2760.02 1675.32,2762.27 C1676.03,2763.40 1679.11,2765.96 1680.51,2766.59 C1683.18,2767.73 1690.48,2768.03 1692.56,2767.48 C1696.23,2766.46 1713.24,2758.22 1718.30,2756.01 C1720.41,2754.99 1738.82,2744.59 1746.39,2740.31 C1750.46,2738.07 1754.67,2736.35 1757.97,2735.94 C1765.39,2735.11 1783.15,2736.12 1787.25,2736.90 C1791.62,2737.76 1800.25,2740.91 1801.73,2741.34 C1803.04,2741.73 1817.71,2745.18 1823.93,2745.80 C1828.29,2746.22 1848.33,2746.50 1856.19,2746.50 C1863.46,2746.43 1878.15,2746.29 1882.30,2745.21 C1887.69,2743.69 1896.88,2736.45 1897.78,2734.87" fill="none" stroke="rgb(48, 48, 48)" stroke-width="7.00" stroke-opacity="1.00" stroke-linejoin="round"/>
<path d="M1618.58,2442.03 C1618.58,2442.03 1619.93,2439.61 1619.93,2439.61 C1617.90,2443.65 1613.30,2457.24 1612.18,2462.56 C1611.02,2468.24 1609.77,2508.56 1609.39,2525.62 C1609.34,2528.57 1609.14,2535.77 1609.07,2535.86 C1608.91,2536.04 1600.02,2542.21 1596.57,2544.86 C1594.88,2546.20 1591.71,2549.16 1590.99,2550.31 C1589.89,2552.13 1590.09,2561.27 1590.05,2562.11 C1589.97,2563.99 1589.65,2566.35 1589.52,2566.55" fill="none" stroke="rgb(48, 48, 48)" stroke-width="7.00" stroke-opacity="1.00" stroke-linejoin="round"/>
<path d="M1525.26,1308.73 C1522.90,1296.90 1521.80,1290.10 1521.78,1288.14 C1521.80,1285.03 1522.40,1282.33 1523.55,1280.27 C1528.75,1270.94 1553.40,1234.42 1557.31,1229.10 C1560.90,1224.25 1570.14,1214.76 1575.30,1210.16 C1580.16,1205.85 1592.45,1197.29 1597.76,1194.24 C1603.00,1191.26 1616.35,1185.15 1623.03,1182.14 C1626.72,1180.49 1632.35,1178.43 1634.64,1178.45 C1638.90,1178.57 1651.11,1184.87 1656.55,1188.81 C1662.82,1193.40 1671.61,1202.51 1676.77,1209.39 C1677.99,1211.01 1679.56,1213.25 1680.18,1214.20" fill="none" stroke="rgb(48, 48, 48)" stroke-width="7.00" stroke-opacity="1.00" stroke-linejoin="round"/>
<path d="M1637.88,1227.93 C1637.88,1227.94 1639.29,1227.96 1640.01,1228.13 C1642.95,1228.82 1649.60,1232.94 1651.76,1234.64 C1659.87,1241.10 1674.31,1261.83 1678.40,1267.77" fill="none" stroke="rgb(48, 48, 48)" stroke-width="7.00" stroke-opacity="1.00" stroke-linejoin="round"/>
<path d="M1641.14,1202.22 C1641.13,1202.22 1641.16,1202.22 1641.17,1202.22 C1643.17,1202.10 1645.79,1202.12 1647.11,1202.35 C1648.78,1202.66 1654.11,1205.80 1657.09,1208.51 C1660.44,1211.58 1668.74,1222.53 1671.71,1228.08 C1674.73,1233.76 1677.69,1243.91 1679.29,1251.78 C1680.50,1257.80 1681.37,1269.21 1681.34,1275.15 C1681.34,1276.06 1681.34,1276.97 1681.34,1277.88" fill="none" stroke="rgb(48, 48, 48)" stroke-width="7.00" stroke-opacity="1.00" stroke-linejoin="round"/>
<path d="M1522.06,1323.41 C1521.13,1323.99 1520.53,1324.41 1520.25,1324.66 C1518.97,1325.84 1508.02,1341.11 1505.71,1345.54 C1503.48,1349.87 1496.13,1367.52 1492.95,1375.29 C1488.68,1386.07 1485.55,1394.62 1483.95,1401.63 C1482.34,1408.64 1478.87,1423.91 1477.01,1432.17 C1474.86,1443.20 1473.10,1455.36 1472.39,1463.93 C1471.31,1479.32 1470.99,1510.72 1471.21,1525.86 C1471.56,1535.06 1472.63,1545.54 1474.00,1551.63 C1475.73,1558.26 1478.60,1569.74 1479.06,1576.73 C1479.16,1578.52 1479.39,1582.45 1479.41,1583.19 C1479.43,1583.74 1479.44,1584.97 1479.46,1586.87" fill="none" stroke="rgb(48, 48, 48)" stroke-width="7.00" stroke-opacity="1.00" stroke-linejoin="round"/>
<path d="M1687.71,1213.67 C1690.42,1208.60 1699.99,1197.63 1706.25,1192.48 C1712.03,1187.75 1724.90,1178.92 1730.38,1175.93 C1736.27,1172.75 1750.48,1168.52 1757.80,1166.53 C1768.17,1163.82 1780.99,1161.31 1786.68,1160.68 C1790.31,1160.28 1807.56,1159.42 1814.77,1159.25 C1823.99,1159.09 1834.55,1160.08 1843.98,1161.99 C1851.21,1163.51 1868.44,1167.20 1872.58,1168.37 C1879.03,1170.21 1887.92,1173.95 1899.17,1179.02 C1913.25,1185.61 1940.53,1198.63 1951.70,1204.80 C1957.86,1208.38 1968.05,1214.37 1977.27,1220.47 C1983.41,1224.58 1993.94,1231.94 2000.04,1237.42 C2008.16,1244.85 2017.46,1254.08 2023.09,1260.78 C2027.41,1265.95 2036.51,1278.23 2039.10,1281.72" fill="none" stroke="rgb(48, 48, 48)" stroke-width="7.00" stroke-opacity="1.00" stroke-linejoin="round"/>
<path d="M2049.60,1292.71 C2049.60,1292.71 2064.74,1320.10 2064.74,1320.10 C2067.47,1326.77 2073.21,1340.74 2076.21,1348.05 C2079.71,1356.59 2082.82,1366.14 2085.57,1376.40 C2091.73,1401.63 2096.44,1418.10 2098.84,1434.77 C2100.38,1446.35 2101.25,1478.03 2101.53,1494.12 C2101.55,1509.18 2101.45,1546.47 2101.33,1550.40 C2101.07,1558.73 2095.66,1598.14 2093.17,1614.65 C2090.70,1628.91 2085.26,1664.76 2083.40,1672.60 C2082.50,1676.34 2080.31,1683.44 2079.73,1686.24 C2079.24,1688.60 2075.73,1709.64 2075.49,1713.67 C2075.32,1716.72 2075.58,1732.16 2075.63,1735.17 C2075.64,1735.99 2075.65,1736.81 2075.65,1737.64" fill="none" stroke="rgb(48, 48, 48)" stroke-width="7.00" stroke-opacity="1.00" stroke-linejoin="round"/>
<path d="M1964.57,1246.41 C1967.41,1247.48 1969.66,1248.54 1993.23,1264.26 C2001.48,1269.99 2010.95,1277.81 2015.97,1282.60 C2022.43,1288.80 2028.84,1295.99 2034.88,1303.83 C2039.78,1310.60 2043.92,1317.99 2049.09,1328.21 C2053.42,1337.10 2058.75,1350.03 2061.31,1357.64 C2066.03,1372.21 2074.19,1403.55 2076.52,1414.44 C2079.28,1428.79 2083.42,1454.58 2085.84,1474.63 C2087.37,1488.75 2089.53,1517.57 2090.47,1533.13 C2091.19,1549.47 2092.30,1588.20 2091.85,1599.34 C2091.66,1602.89 2091.31,1609.47 2091.14,1612.51 C2090.82,1617.69 2089.86,1627.89 2089.76,1628.86" fill="none" stroke="rgb(48, 48, 48)" stroke-width="7.00" stroke-opacity="1.00" stroke-linejoin="round"/>
<path d="M1808.55,1317.63 C1808.55,1317.63 1808.48,1317.41 1808.48,1317.41 C1812.50,1317.17 1816.18,1317.19 1819.58,1317.82 C1825.68,1318.98 1840.81,1324.04 1846.66,1326.47 C1850.35,1328.00 1867.73,1336.42 1872.53,1339.23 C1876.64,1341.65 1892.20,1351.65 1899.08,1356.13 C1906.10,1360.95 1919.08,1370.48 1925.11,1375.22 C1936.51,1384.55 1956.87,1403.13 1969.84,1416.27 C1976.03,1422.78 1984.40,1432.12 1988.85,1437.35 C1996.20,1446.47 2015.88,1474.27 2024.77,1487.10 C2027.00,1490.32 2030.47,1495.34 2031.71,1497.12" fill="none" stroke="rgb(48, 48, 48)" stroke-width="7.00" stroke-opacity="1.00" stroke-linejoin="round"/>
<path d="M1569.65,1519.29 C1569.65,1517.92 1569.70,1515.91 1569.83,1515.01 C1570.20,1512.77 1572.86,1508.84 1575.81,1505.64 C1578.13,1503.17 1581.51,1500.70 1584.84,1498.97 C1588.31,1497.21 1592.33,1495.87 1595.05,1495.73 C1598.71,1495.59 1604.50,1496.35 1606.46,1497.24 C1609.13,1498.49 1612.17,1501.24 1613.16,1502.09 C1613.18,1502.10 1613.22,1502.14 1613.21,1502.13" fill="none" stroke="rgb(48, 48, 48)" stroke-width="7.00" stroke-opacity="1.00" stroke-linejoin="round"/>
<path d="M1707.09,1486.86 C1707.08,1486.51 1707.08,1486.27 1707.09,1486.14 C1707.32,1484.63 1710.46,1481.82 1714.77,1478.77 C1717.89,1476.64 1722.69,1474.89 1726.11,1474.43 C1730.26,1473.92 1743.07,1473.11 1749.21,1473.22 C1752.37,1473.29 1756.80,1474.77 1761.59,1476.84 C1764.50,1478.15 1772.12,1481.70 1772.12,1481.70 C1772.23,1481.75 1772.35,1481.78 1772.48,1481.80" fill="none" stroke="rgb(48, 48, 48)" stroke-width="7.00" stroke-opacity="1.00" stroke-linejoin="round"/>
<path d="M1595.23,1560.47 C1595.20,1561.97 1595.24,1564.27 1595.38,1565.42 C1595.94,1569.76 1605.86,1592.45 1608.42,1596.33 C1609.85,1598.45 1612.68,1598.99 1612.94,1598.73 C1613.21,1594.63 1611.52,1587.03 1610.40,1583.36 C1608.82,1578.26 1601.37,1563.36 1599.48,1561.23 C1599.29,1561.01 1599.08,1560.74 1598.87,1560.41" fill="none" stroke="rgb(48, 48, 48)" stroke-width="21.00" stroke-opacity="1.00" stroke-linejoin="round"/>
<path d="M1755.44,1537.98 C1755.44,1537.98 1755.67,1537.09 1755.67,1537.09 C1755.67,1537.09 1755.67,1537.09 1755.67,1537.09 C1755.11,1547.32 1755.20,1558.26 1756.14,1565.72 C1757.52,1576.26 1758.23,1579.91 1758.84,1581.96 C1760.62,1582.77 1761.72,1582.95 1762.46,1582.33 C1764.12,1580.85 1765.71,1575.99 1765.88,1572.36 C1766.25,1563.38 1764.70,1550.53 1762.68,1544.80 C1762.39,1544.02 1761.33,1540.44 1760.85,1539.54 C1760.47,1538.86 1759.41,1538.35 1759.30,1538.44" fill="none" stroke="rgb(48, 48, 48)" stroke-width="21.00" stroke-opacity="1.00" stroke-linejoin="round"/>
<path d="M1632.51,1551.71 C1632.51,1551.98 1632.96,1552.95 1633.85,1554.44 C1634.06,1554.79 1640.15,1564.58 1641.46,1567.01 C1643.80,1571.41 1648.11,1582.74 1649.90,1590.77 C1651.22,1596.85 1652.39,1612.01 1652.93,1619.51 C1653.45,1627.70 1652.97,1639.22 1651.58,1642.95 C1651.20,1643.95 1647.63,1651.92 1646.38,1654.67 C1646.38,1654.67 1646.04,1654.72 1646.04,1654.72" fill="none" stroke="rgb(48, 48, 48)" stroke-width="7.00" stroke-opacity="1.00" stroke-linejoin="round"/>
<path d="M1649.69,1662.41 C1649.65,1663.91 1649.71,1664.69 1650.06,1666.47 C1650.56,1668.89 1653.58,1672.79 1655.62,1674.28 C1657.25,1675.44 1661.67,1677.28 1663.92,1677.63 C1667.18,1678.10 1672.20,1678.28 1673.12,1678.17 C1673.44,1678.12 1673.77,1678.00 1674.10,1677.79" fill="none" stroke="rgb(48, 48, 48)" stroke-width="7.00" stroke-opacity="1.00" stroke-linejoin="round"/>
<path d="M1686.06,1716.98 C1686.00,1716.98 1685.94,1716.98 1685.88,1716.98 C1685.83,1716.98 1685.77,1716.98 1685.72,1716.98 C1685.72,1716.92 1692.02,1718.06 1695.67,1718.72 C1701.84,1719.81 1714.37,1719.81 1721.26,1718.85 C1727.26,1718.00 1741.16,1714.59 1747.75,1711.86 C1753.98,1709.25 1764.07,1703.31 1772.39,1697.59 C1779.40,1692.70 1788.89,1684.51 1796.60,1677.27 C1798.67,1675.31 1801.40,1672.02 1803.42,1670.09 C1803.42,1670.09 1801.30,1668.31 1801.30,1668.31 C1801.30,1668.31 1806.77,1667.36 1806.77,1667.36 C1806.77,1667.36 1802.32,1666.50 1802.32,1666.50 C1802.32,1666.50 1809.01,1665.36 1809.01,1665.36 C1809.01,1665.36 1802.87,1666.32 1802.87,1666.32 C1802.87,1666.32 1805.24,1666.71 1805.24,1666.71 C1805.24,1666.71 1805.27,1667.99 1805.27,1667.99 C1805.27,1667.99 1804.10,1668.14 1804.10,1668.14" fill="none" stroke="rgb(48, 48, 48)" stroke-width="7.00" stroke-opacity="1.00" stroke-linejoin="round"/>
<path d="M2291.91,2529.69 C2295.68,2530.20 2308.53,2535.56 2317.60,2539.98 C2320.85,2541.61 2332.83,2549.84 2335.83,2551.91" fill="none" stroke="rgb(48, 48, 48)" stroke-width="7.00" stroke-opacity="1.00" stroke-linejoin="round"/>
<path d="M2366.15,2442.43 C2365.60,2444.00 2360.85,2448.74 2358.06,2451.31 C2354.34,2454.73 2349.94,2459.24 2347.21,2462.37 C2344.20,2465.85 2341.30,2470.15 2340.08,2473.30 C2339.03,2476.18 2339.29,2480.83 2340.75,2483.79 C2343.10,2488.40 2376.34,2532.81 2378.31,2534.98 C2379.10,2535.87 2381.89,2539.02 2382.27,2540.16 C2383.96,2545.46 2383.81,2553.44 2383.52,2556.06 C2382.73,2556.25 2382.25,2556.35 2382.09,2556.39 C2381.92,2556.42 2381.84,2556.42 2381.85,2556.39" fill="none" stroke="rgb(48, 48, 48)" stroke-width="7.00" stroke-opacity="1.00" stroke-linejoin="round"/>
<path d="M935.57,2705.51 C935.57,2705.51 901.85,2260.33 901.85,2260.33 C901.85,2260.33 886.63,2208.96 938.00,2214.67 C989.37,2220.38 1516.40,2279.36 1516.40,2279.36 C1516.40,2279.36 1560.91,2269.85 1565.87,2344.05 C1570.82,2418.09 1576.66,2838.99 1576.66,2838.99" fill="none" stroke="rgb(48, 48, 48)" stroke-width="7.00" stroke-opacity="1.00" stroke-linejoin="miter"/>
<path d="M951.22,2724.70 C1546.34,2851.56 1565.97,2877.96 1577.35,2831.94" fill="none" stroke="rgb(48, 48, 48)" stroke-width="7.00" stroke-opacity="1.00" stroke-linejoin="miter"/>
<path d="M917.38,2213.28 C922.83,2206.91 932.47,2202.83 949.00,2204.67 C1000.37,2210.38 1527.40,2269.36 1527.40,2269.36 C1525.96,2270.02 1574.39,2262.33 1576.87,2334.05 C1579.43,2408.21 1587.66,2828.99 1587.66,2828.99" fill="none" stroke="rgb(48, 48, 48)" stroke-width="7.00" stroke-opacity="1.00" stroke-linejoin="miter"/>
<path d="M1586.68,2852.37 C1586.68,2852.37 1912.79,2777.44 1912.79,2777.44" fill="none" stroke="rgb(48, 48, 48)" stroke-width="7.00" stroke-opacity="1.00" stroke-linejoin="miter"/>
<path d="M1588.39,2868.55 C1588.39,2868.55 1924.71,2790.21 1924.71,2790.21" fill="none" stroke="rgb(48, 48, 48)" stroke-width="7.00" stroke-opacity="1.00" stroke-linejoin="miter"/>
<path d="M1231.42,2471.60 C1231.42,2471.60 1230.32,2441.66 1266.59,2437.69" fill="none" stroke="rgb(48, 48, 48)" stroke-width="7.00" stroke-opacity="1.00" stroke-linejoin="miter"/>
<path d="M1267.25,2444.16 C1267.25,2444.16 1264.12,2462.15 1238.45,2474.56" fill="none" stroke="rgb(48, 48, 48)" stroke-width="7.00" stroke-opacity="1.00" stroke-linejoin="miter"/>
<path d="M1189.83,2487.66 C1189.83,2487.66 1212.33,2466.00 1228.16,2491.83" fill="none" stroke="rgb(48, 48, 48)" stroke-width="7.00" stroke-opacity="1.00" stroke-linejoin="miter"/>
<path d="M1231.11,2490.60 C1231.11,2490.60 1254.29,2468.86 1271.71,2492.28" fill="none" stroke="rgb(48, 48, 48)" stroke-width="7.00" stroke-opacity="1.00" stroke-linejoin="miter"/>
<path d="M1268.11,2501.00 C1262.87,2498.76 1257.14,2497.34 1253.49,2498.23 C1251.70,2498.72 1247.97,2500.54 1246.74,2501.61 C1245.36,2502.84 1241.25,2508.96 1240.91,2510.84 C1240.75,2511.86 1239.98,2521.18 1240.35,2522.74 C1240.66,2523.91 1244.90,2531.43 1246.00,2532.63 C1247.32,2534.03 1250.07,2535.89 1251.96,2536.67 C1253.87,2537.41 1257.01,2537.81 1258.96,2537.56 C1260.55,2537.33 1266.23,2535.08 1267.27,2534.66" fill="none" stroke="rgb(48, 48, 48)" stroke-width="7.00" stroke-opacity="1.00" stroke-linejoin="round"/>
<path d="M1184.78,2497.12 C1184.31,2498.30 1182.66,2502.48 1182.46,2502.98 C1181.29,2505.83 1181.10,2511.79 1181.05,2514.44 C1181.00,2517.33 1181.42,2520.52 1182.33,2526.25 C1182.94,2529.67 1184.89,2533.70 1187.41,2538.38 C1192.05,2546.93 1195.08,2550.94 1201.11,2557.81" fill="none" stroke="rgb(48, 48, 48)" stroke-width="7.00" stroke-opacity="1.00" stroke-linejoin="round"/>
<path d="M1202.50,2558.35 C1203.64,2559.35 1206.89,2562.25 1207.74,2562.79 C1209.36,2563.81 1212.89,2564.78 1214.53,2564.71 C1215.69,2564.64 1220.49,2563.79 1221.13,2563.72 C1222.68,2563.55 1226.07,2564.00 1227.48,2564.60 C1228.52,2565.05 1231.90,2567.02 1233.65,2567.46 C1236.09,2568.08 1242.22,2567.93 1243.45,2567.89" fill="none" stroke="rgb(48, 48, 48)" stroke-width="7.00" stroke-opacity="1.00" stroke-linejoin="round"/>
<path d="M1244.25,2568.04 C1247.51,2566.86 1255.68,2563.83 1258.71,2562.15 C1262.05,2560.25 1266.16,2556.07 1267.75,2552.87 C1269.17,2549.92 1271.20,2542.11 1271.99,2538.99" fill="none" stroke="rgb(48, 48, 48)" stroke-width="7.00" stroke-opacity="1.00" stroke-linejoin="round"/>
</g>
</svg>
